<svg xmlns="http://www.w3.org/2000/svg" width="50" height="35" viewBox="0 0 50 35" fill="none">
<path d="M0 17.5C0 7.83502 7.83502 0 17.5 0H41.6667C46.269 0 50 3.73096 50 8.33333V26.6667C50 31.269 46.269 35 41.6667 35H17.5C7.83502 35 0 27.165 0 17.5Z" fill="#1F2841"/>
<rect x="2" y="2" width="30" height="31" rx="15" fill="#2C3756"/>
<path d="M19.4 18.3125C18.6313 18.3125 18.2616 18.75 17 18.75C15.7384 18.75 15.3714 18.3125 14.6 18.3125C12.6125 18.3125 11 19.9586 11 21.9875V22.6875C11 23.4121 11.5759 24 12.2857 24H21.7143C22.4241 24 23 23.4121 23 22.6875V21.9875C23 19.9586 21.3875 18.3125 19.4 18.3125ZM21.7143 22.6875H12.2857V21.9875C12.2857 20.6859 13.325 19.625 14.6 19.625C14.9911 19.625 15.6259 20.0625 17 20.0625C18.3848 20.0625 19.0063 19.625 19.4 19.625C20.675 19.625 21.7143 20.6859 21.7143 21.9875V22.6875ZM17 17.875C19.1295 17.875 20.8571 16.1113 20.8571 13.9375C20.8571 11.7637 19.1295 10 17 10C14.8705 10 13.1429 11.7637 13.1429 13.9375C13.1429 16.1113 14.8705 17.875 17 17.875ZM17 11.3125C18.417 11.3125 19.5714 12.491 19.5714 13.9375C19.5714 15.384 18.417 16.5625 17 16.5625C15.583 16.5625 14.4286 15.384 14.4286 13.9375C14.4286 12.491 15.583 11.3125 17 11.3125Z" fill="white"/>
</svg>